<svg xmlns="http://www.w3.org/2000/svg" fill="none" viewBox="0 0 24 24">
    <path fill="currentColor" fill-rule="evenodd" d="M12 7.94a2.37 2.37 0 1 0 0 4.74 2.37 2.37 0 0 0 0-4.74m-3.87 2.37a3.87 3.87 0 1 1 7.74 0 3.87 3.87 0 0 1-7.74 0" clip-rule="evenodd"/>
    <path fill="currentColor" fill-rule="evenodd" d="M12.003 2.75c-3.417-.002-6.759 1.98-7.652 5.906C3.294 13.326 6.188 17.376 8.91 20a4.444 4.444 0 0 0 6.169 0h.001c2.732-2.623 5.625-6.664 4.568-11.333-.888-3.926-4.228-5.914-7.645-5.916m9.108 5.584C20.04 3.6 15.985 1.253 12.004 1.25S3.965 3.59 2.888 8.324c-1.242 5.49 2.184 10.06 4.981 12.756h.001a5.943 5.943 0 0 0 8.25 0c2.808-2.697 6.234-7.256 4.991-12.746" clip-rule="evenodd"/>
</svg>
